<?xml version="1.0" encoding="UTF-8" standalone="no"?>
<!-- Created with Inkscape (http://www.inkscape.org/) -->

<svg
   xmlns:dc="http://purl.org/dc/elements/1.1/"
   xmlns:cc="http://creativecommons.org/ns#"
   xmlns:rdf="http://www.w3.org/1999/02/22-rdf-syntax-ns#"
   xmlns:svg="http://www.w3.org/2000/svg"
   xmlns="http://www.w3.org/2000/svg"
   xmlns:xlink="http://www.w3.org/1999/xlink"
   xmlns:sodipodi="http://sodipodi.sourceforge.net/DTD/sodipodi-0.dtd"
   xmlns:inkscape="http://www.inkscape.org/namespaces/inkscape"
   id="svg3107"
   sodipodi:docname="download-linux.svg"
   viewBox="0 0 590.24 171.71"
   version="1.1"
   inkscape:version="0.91 r13725">
  <sodipodi:namedview
     id="namedview43"
     bordercolor="#666666"
     inkscape:pageshadow="2"
     guidetolerance="10"
     pagecolor="#ffffff"
     gridtolerance="10"
     inkscape:window-maximized="1"
     inkscape:zoom="0.8026654"
     objecttolerance="10"
     borderopacity="1"
     inkscape:current-layer="g4108"
     inkscape:cx="231.92607"
     inkscape:cy="-109.70451"
     inkscape:window-y="0"
     inkscape:window-x="48"
     inkscape:window-width="1232"
     showgrid="false"
     inkscape:pageopacity="0"
     inkscape:window-height="998" />
  <defs
     id="defs3109">
    <filter
       id="filter5695"
       color-interpolation-filters="sRGB">
      <feGaussianBlur
         id="feGaussianBlur5697"
         stdDeviation="2.6229429" />
    </filter>
    <filter
       id="filter5743"
       height="1.289"
       width="1.0576"
       color-interpolation-filters="sRGB"
       y="-.14451"
       x="-.028780">
      <feGaussianBlur
         id="feGaussianBlur5745"
         stdDeviation="7.4347485" />
    </filter>
    <filter
       id="filter5768"
       height="1.4794"
       width="1.0123"
       color-interpolation-filters="sRGB"
       y="-.23970"
       x="-.0061540">
      <feGaussianBlur
         id="feGaussianBlur5770"
         stdDeviation="1.6130838" />
    </filter>
    <filter
       id="filter6167"
       color-interpolation-filters="sRGB">
      <feGaussianBlur
         id="feGaussianBlur6169"
         stdDeviation="4.0073743" />
    </filter>
    <filter
       id="filter3794"
       height="1.72"
       width="1.0655"
       y="-0.36000001"
       x="-0.032726999"
       inkscape:collect="always">
      <feGaussianBlur
         id="feGaussianBlur3796"
         stdDeviation="10.99209"
         inkscape:collect="always" />
    </filter>
    <linearGradient
       id="linearGradient3360"
       y2="360.62"
       gradientUnits="userSpaceOnUse"
       x2="1510.9"
       y1="-9.6422005"
       x1="1510.9"
       inkscape:collect="always">
      <stop
         id="stop3287"
         style="stop-color:rgb(255, 255, 255)"
         offset="0" />
      <stop
         id="stop3289"
         style="stop-color:rgb(255, 255, 255);stop-opacity:0"
         offset="1" />
    </linearGradient>
    <filter
       id="filter3766"
       inkscape:collect="always">
      <feGaussianBlur
         id="feGaussianBlur3768"
         stdDeviation="7.5100269"
         inkscape:collect="always" />
    </filter>
    <linearGradient
       id="linearGradient2972"
       y2="600.03003"
       gradientUnits="userSpaceOnUse"
       x2="513.84998"
       gradientTransform="matrix(0.40465394,0,0,0.39310877,-348.26444,37.115982)"
       y1="457.32001"
       x1="513.84998"
       inkscape:collect="always">
      <stop
         id="stop3616"
         style="stop-color:rgb(255, 255, 255)"
         offset="0" />
      <stop
         id="stop3618"
         style="stop-color:rgb(190, 190, 190)"
         offset="1" />
    </linearGradient>
    <filter
       id="filter3782"
       inkscape:collect="always">
      <feGaussianBlur
         id="feGaussianBlur3784"
         stdDeviation="3.2747106"
         inkscape:collect="always" />
    </filter>
    <filter
       id="filter3778"
       inkscape:collect="always">
      <feGaussianBlur
         id="feGaussianBlur3780"
         stdDeviation="3.2747106"
         inkscape:collect="always" />
    </filter>
    <filter
       id="filter3738"
       inkscape:collect="always">
      <feGaussianBlur
         id="feGaussianBlur3740"
         stdDeviation="6.2444376"
         inkscape:collect="always" />
    </filter>
    <radialGradient
       id="radialGradient2965"
       xlink:href="#linearGradient3420"
       gradientUnits="userSpaceOnUse"
       cy="902.17999"
       cx="712.56"
       gradientTransform="matrix(0.40465394,0,0,0.19004768,-348.26444,218.15475)"
       r="170.67999"
       inkscape:collect="always" />
    <linearGradient
       id="linearGradient3420">
      <stop
         id="stop3422"
         style="stop-color:rgb(223, 190, 0)"
         offset="0" />
      <stop
         id="stop3436"
         style="stop-color:rgb(222, 175, 0)"
         offset="0.8" />
      <stop
         id="stop3424"
         style="stop-color:rgb(222, 161, 1)"
         offset="1" />
    </linearGradient>
    <filter
       id="filter3742"
       inkscape:collect="always">
      <feGaussianBlur
         id="feGaussianBlur3744"
         stdDeviation="6.2684546"
         inkscape:collect="always" />
    </filter>
    <radialGradient
       id="radialGradient2961"
       xlink:href="#linearGradient3420"
       gradientUnits="userSpaceOnUse"
       cy="898.07001"
       cx="317.23001"
       gradientTransform="matrix(0.40465394,0,0,0.19004768,-348.26444,218.15475)"
       r="170.67999"
       inkscape:collect="always" />
    <filter
       id="filter3758"
       inkscape:collect="always">
      <feGaussianBlur
         id="feGaussianBlur3760"
         stdDeviation="3.35859"
         inkscape:collect="always" />
    </filter>
    <filter
       id="filter3762"
       inkscape:collect="always">
      <feGaussianBlur
         id="feGaussianBlur3764"
         stdDeviation="3.486036"
         inkscape:collect="always" />
    </filter>
    <radialGradient
       id="radialGradient3309"
       xlink:href="#linearGradient3303"
       gradientUnits="userSpaceOnUse"
       cy="269.01999"
       cx="430.04001"
       gradientTransform="matrix(0.49436572,0,0,0.62664065,-395.42281,-21.568304)"
       r="77.137001"
       inkscape:collect="always" />
    <linearGradient
       id="linearGradient3303">
      <stop
         id="stop3305"
         style="stop-color:rgb(210, 210, 210)"
         offset="0" />
      <stop
         id="stop3311"
         style="stop-color:rgb(210, 210, 210)"
         offset=".88" />
      <stop
         id="stop3307"
         style="stop-color:rgb(128, 128, 128)"
         offset="1" />
    </linearGradient>
    <radialGradient
       id="radialGradient3319"
       xlink:href="#linearGradient3303"
       gradientUnits="userSpaceOnUse"
       cy="306.62"
       cx="615.16998"
       gradientTransform="matrix(0.53491204,0,0,0.45958879,-431.68385,10.325284)"
       r="77.137001"
       inkscape:collect="always" />
    <linearGradient
       id="linearGradient2953"
       y2="237.22"
       xlink:href="#linearGradient3396"
       gradientUnits="userSpaceOnUse"
       x2="1487.2"
       gradientTransform="matrix(0.40465394,0,0,0.40514982,-757.9361,45.437354)"
       y1="177.42999"
       x1="1449.7"
       inkscape:collect="always" />
    <linearGradient
       id="linearGradient3396">
      <stop
         id="stop3398"
         style="stop-color:rgb(255, 255, 255)"
         offset="0" />
      <stop
         id="stop3400"
         style="stop-color:rgb(255, 255, 255);stop-opacity:0"
         offset="1" />
    </linearGradient>
    <linearGradient
       id="linearGradient2949"
       y2="249.2"
       xlink:href="#linearGradient3396"
       gradientUnits="userSpaceOnUse"
       x2="1664.2"
       gradientTransform="matrix(0.40465394,0,0,0.40514982,-755.58911,43.874691)"
       y1="197.06"
       x1="1632.9"
       inkscape:collect="always" />
    <radialGradient
       id="radialGradient2946"
       xlink:href="#linearGradient3396"
       gradientUnits="userSpaceOnUse"
       cy="319.54001"
       cx="1619.9"
       gradientTransform="matrix(-0.40465394,-3.7170065e-7,1.3401734e-7,-0.14625908,554.27569,219.71863)"
       r="89.638"
       inkscape:collect="always" />
    <radialGradient
       id="radialGradient2943"
       xlink:href="#linearGradient3396"
       gradientUnits="userSpaceOnUse"
       cy="319.54001"
       cx="1619.9"
       gradientTransform="matrix(-0.30420264,-0.37709319,0.14544477,-0.10044069,249.04522,812.36368)"
       r="89.638"
       inkscape:collect="always" />
    <filter
       id="filter3734"
       height="1.2693"
       width="1.2164"
       y="-0.13467"
       x="-0.10821"
       inkscape:collect="always">
      <feGaussianBlur
         id="feGaussianBlur3736"
         stdDeviation="8.1979912"
         inkscape:collect="always" />
    </filter>
    <radialGradient
       id="radialGradient2940"
       xlink:href="#linearGradient3420"
       gradientUnits="userSpaceOnUse"
       cy="418.72"
       cx="510.07001"
       gradientTransform="matrix(0.40465394,-3.961798e-8,3.1794469e-8,0.32554193,-348.2644,66.270157)"
       r="90.912003"
       inkscape:collect="always" />
    <linearGradient
       id="linearGradient2937"
       y2="393.51001"
       xlink:href="#linearGradient3396"
       gradientUnits="userSpaceOnUse"
       x2="1532.6"
       gradientTransform="translate(-1369.0274,-528.77031)"
       y1="341.23001"
       x1="1563.5"
       inkscape:collect="always" />
    <filter
       id="filter3799"
       inkscape:collect="always">
      <feGaussianBlur
         id="feGaussianBlur3801"
         stdDeviation="2.2333129"
         inkscape:collect="always" />
    </filter>
    <linearGradient
       id="linearGradient3608"
       y2="888.87"
       xlink:href="#linearGradient3396"
       gradientUnits="userSpaceOnUse"
       x2="1304.6"
       y1="806.09003"
       x1="1304.6"
       inkscape:collect="always" />
    <filter
       id="filter3795"
       inkscape:collect="always">
      <feGaussianBlur
         id="feGaussianBlur3797"
         stdDeviation="2.4579912"
         inkscape:collect="always" />
    </filter>
    <filter
       id="filter3786"
       inkscape:collect="always">
      <feGaussianBlur
         id="feGaussianBlur3788"
         stdDeviation="2.4579912"
         inkscape:collect="always" />
    </filter>
    <linearGradient
       id="linearGradient2931"
       y2="401.17999"
       xlink:href="#linearGradient3396"
       gradientUnits="userSpaceOnUse"
       x2="1242.6"
       gradientTransform="translate(-1389.6274,-509.40931)"
       y1="638.37"
       x1="938.65002"
       inkscape:collect="always" />
    <filter
       id="filter3774"
       inkscape:collect="always">
      <feGaussianBlur
         id="feGaussianBlur3776"
         stdDeviation="4.0379508"
         inkscape:collect="always" />
    </filter>
    <linearGradient
       id="linearGradient2928"
       y2="401.17999"
       xlink:href="#linearGradient3396"
       gradientUnits="userSpaceOnUse"
       x2="1242.6"
       gradientTransform="matrix(-1,0,0,1,1679.9726,-511.33731)"
       y1="638.37"
       x1="938.65002"
       inkscape:collect="always" />
    <filter
       id="filter3770"
       inkscape:collect="always">
      <feGaussianBlur
         id="feGaussianBlur3772"
         stdDeviation="4.0379508"
         inkscape:collect="always" />
    </filter>
    <linearGradient
       id="linearGradient2922"
       y2="262.63"
       xlink:href="#linearGradient3396"
       gradientUnits="userSpaceOnUse"
       x2="1506.4"
       gradientTransform="matrix(0.40465394,0,0,0.40514982,-781.41464,43.908724)"
       y1="234.5"
       x1="1498.6"
       inkscape:collect="always" />
    <linearGradient
       id="linearGradient2919"
       y2="303.34"
       xlink:href="#linearGradient3820"
       gradientUnits="userSpaceOnUse"
       x2="1484.5"
       gradientTransform="matrix(0.40465394,0,0,0.40514982,-779.67463,42.047465)"
       y1="270"
       x1="1466.7"
       inkscape:collect="always" />
    <linearGradient
       id="linearGradient3820"
       inkscape:collect="always">
      <stop
         id="stop3822"
         style="stop-color:rgb(60, 60, 60)"
         offset="0" />
      <stop
         id="stop3824"
         style="stop-color:rgb(60, 60, 60);stop-opacity:0"
         offset="1" />
    </linearGradient>
    <linearGradient
       id="linearGradient2916"
       y2="262.63"
       xlink:href="#linearGradient3396"
       gradientUnits="userSpaceOnUse"
       x2="1508.4"
       gradientTransform="matrix(0.40465394,0,0,0.40514982,-723.58873,44.416376)"
       y1="231.99001"
       x1="1498.2"
       inkscape:collect="always" />
    <linearGradient
       id="linearGradient2913"
       y2="303.34"
       xlink:href="#linearGradient3820"
       gradientUnits="userSpaceOnUse"
       x2="1484.5"
       gradientTransform="matrix(0.40465394,0,0,0.40514982,-720.97872,42.893418)"
       y1="270"
       x1="1466.7"
       inkscape:collect="always" />
    <linearGradient
       inkscape:collect="always"
       xlink:href="#linearGradient3396"
       id="linearGradient4106"
       gradientUnits="userSpaceOnUse"
       x1="1304.6"
       y1="806.09003"
       x2="1304.6"
       y2="888.87" />
  </defs>
  <rect
     id="rect6161"
     style="opacity:.63983;filter:url(#filter6167);fill:#000000"
     ry="36.77"
     transform="matrix(1 0 0 -1 8.2035 -901.64)"
     width="571"
     y="-1063.7"
     x="1.4142"
     height="152.47" />
  <rect
     id="rect6767"
     style="fill:#008000"
     ry="36.77"
     transform="scale(1,-1)"
     width="573"
     y="-156.19"
     x="8.2035"
     height="152.47" />
  <rect
     id="rect5725"
     style="filter:url(#filter5743);fill:#44aa00"
     ry="27.77"
     transform="matrix(1 0 0 -1 8.2035 -897.64)"
     width="545"
     y="-1038.8"
     x="14"
     height="119.47" />
  <g
     id="text3034"
     style="fill:#000000">
    <path
       id="path3084"
       style="fill:#000000"
       d="m206.09 68.352c1.2032 0.000004 2.2397-0.1667 3.1095-0.50012 0.88425-0.34791 1.6453-0.79729 2.2832-1.3482 0.65231-0.55085 1.1887-1.1742 1.6091-1.87 0.43486-0.69582 0.79002-1.3989 1.0655-2.1092l5.5883 2.1092c-0.44942 1.1017-1.0365 2.1817-1.7613 3.2399-0.72485 1.0582-1.6309 1.9932-2.7181 2.805s-2.3847 1.4714-3.8923 1.9787c-1.4931 0.49288-3.2544 0.73931-5.2839 0.73931-2.6528 0-4.9505-0.3914-6.893-1.1742-1.9425-0.7973-3.5516-1.899-4.8273-3.3052-1.2612-1.4206-2.2034-3.1022-2.8268-5.0447-0.60884-1.9425-0.91327-4.0662-0.91327-6.3711 0-2.3919 0.30443-4.5518 0.91327-6.4799 0.62334-1.928 1.5584-3.5661 2.805-4.9143 1.2467-1.3626 2.8195-2.4064 4.7186-3.1312 1.9135-0.73928 4.1604-1.1089 6.7408-1.109 2.0005 0.000031 3.7473 0.21023 5.2404 0.63059 1.5076 0.42042 2.805 1.0148 3.8923 1.783 1.1017 0.75384 2.0077 1.6526 2.7181 2.6963 0.72479 1.0293 1.2901 2.1672 1.6961 3.4139l-5.6536 1.5439c-0.20297-0.65231-0.51464-1.2757-0.93501-1.87-0.42042-0.60882-0.95678-1.1452-1.6091-1.6091-0.63786-0.46386-1.3917-0.83351-2.2614-1.109-0.8698-0.2899-1.8556-0.43486-2.9572-0.43489-1.5511 0.000026-2.8848 0.25371-4.001 0.76106-1.1162 0.4929-2.0368 1.2032-2.7616 2.131-0.71033 0.92779-1.2394 2.044-1.5874 3.3487-0.33342 1.2902-0.50013 2.7398-0.50012 4.3489-0.00001 1.5946 0.1667 3.0587 0.50012 4.3924 0.3479 1.3192 0.88427 2.4571 1.6091 3.4139 0.72481 0.95676 1.6526 1.7033 2.7833 2.2397 1.1452 0.53637 2.5151 0.80455 4.1097 0.80455" />
    <path
       id="path3086"
       style="fill:#000000"
       d="m224.09 72.962v-32.269h6.1102v32.269h-6.1102" />
    <path
       id="path3088"
       style="fill:#000000"
       d="m236.44 45.194v-4.5011h6.1102v4.5011h-6.1102m0 27.768v-23.528h6.1102v23.528h-6.1102" />
    <path
       id="path3090"
       style="fill:#000000"
       d="m258.6 73.396c-1.87 0-3.5081-0.28993-4.9143-0.86978-1.3916-0.57985-2.5514-1.3989-3.4791-2.4571-0.92777-1.0582-1.6236-2.3267-2.0875-3.8053-0.46389-1.4931-0.69583-3.1384-0.69583-4.936 0-1.957 0.25369-3.6965 0.76106-5.2187 0.50737-1.5366 1.2394-2.8268 2.1962-3.8705 0.95675-1.0582 2.131-1.8628 3.5226-2.4136 1.4061-0.55084 3.0007-0.82627 4.7838-0.82629 1.5221 0.000024 2.8702 0.20297 4.0445 0.60885 1.1887 0.40592 2.2107 0.96403 3.066 1.6743 0.85526 0.69584 1.5438 1.5221 2.0657 2.4789 0.53634 0.95678 0.906 1.986 1.109 3.0877l-6.1537 0.30442c-0.17397-1.2032-0.60886-2.1599-1.3047-2.8703-0.69584-0.7248-1.6816-1.0872-2.9572-1.0872-1.6381 0.00002-2.834 0.6741-3.5878 2.0222-0.75382 1.3482-1.1307 3.3052-1.1307 5.871-0.00001 5.4216 1.6018 8.1324 4.8055 8.1324 1.1597 0.000004 2.1309-0.3624 2.9138-1.0872 0.78278-0.73931 1.2684-1.8338 1.4569-3.2834l6.1319 0.28268c-0.14498 1.0872-0.4784 2.131-1.0002 3.1312-0.5074 0.98575-1.2032 1.8628-2.0875 2.6311-0.8698 0.75381-1.928 1.3627-3.1747 1.8265-1.2467 0.44939-2.6746 0.67408-4.2837 0.67408" />
    <path
       id="path3092"
       style="fill:#000000"
       d="m288.61 72.962-6.2842-10.655-2.6311 1.8265v8.8283h-6.1102v-32.269h6.1102v18.483l8.3934-9.7415h6.5668l-8.2629 9.1762 8.8935 14.351h-6.6756" />
    <path
       id="path3094"
       style="fill:#000000"
       d="m316.75 54.131c0.82628-1.7975 1.8628-3.1022 3.1095-3.914 1.2467-0.81177 2.7325-1.2177 4.4576-1.2177 1.4206 0.000024 2.6166 0.23196 3.5878 0.69582 0.98573 0.4639 1.783 1.1017 2.3919 1.9135 0.62332 0.81181 1.0727 1.7686 1.3482 2.8703 0.2754 1.1017 0.41312 2.2904 0.41314 3.5661v14.917h-6.0884v-13.177c-0.00002-0.91325-0.0725-1.7468-0.21745-2.5006-0.14498-0.76829-0.38417-1.4206-0.71756-1.957-0.33344-0.55084-0.76833-0.97848-1.3047-1.2829-0.53638-0.3044-1.1887-0.45662-1.957-0.45663-0.73932 0.000019-1.4134 0.16673-2.0222 0.50012-0.59437 0.31894-1.109 0.78282-1.5439 1.3916-0.4349 0.59437-0.77557 1.3119-1.022 2.1527-0.23195 0.8263-0.34793 1.7396-0.34792 2.7398v12.59h-6.1102v-32.269h6.1102v8.8065c-0.00001 0.46391-0.007 0.93504-0.0217 1.4134-0.0145 0.4639-0.0362 0.90604-0.0652 1.3264-0.0145 0.40592-0.029 0.77557-0.0435 1.109-0.0145 0.33344-0.029 0.59437-0.0435 0.7828h0.087" />
    <path
       id="path3096"
       style="fill:#000000"
       d="m347.58 73.396c-1.6961 0-3.2254-0.24644-4.5881-0.73931-1.3482-0.50737-2.5006-1.2684-3.4574-2.2832-0.95676-1.0292-1.6888-2.3122-2.1962-3.8488-0.50737-1.5511-0.76106-3.3631-0.76106-5.4361 0-2.2469 0.29717-4.1387 0.89153-5.6753 0.60884-1.5366 1.4206-2.776 2.4354-3.7183 1.0292-0.95674 2.2107-1.6453 3.5444-2.0657 1.3336-0.42037 2.7398-0.63057 4.2184-0.63059 1.8555 0.000024 3.4356 0.32619 4.7403 0.9785 1.3191 0.63786 2.3991 1.5366 3.2399 2.6963 0.84076 1.1597 1.4568 2.5514 1.8483 4.1749 0.39137 1.6091 0.58707 3.3922 0.5871 5.3491v0.17396h-15.091c0 0.98576 0.087 1.9063 0.26094 2.7616 0.17395 0.84079 0.45662 1.5729 0.84803 2.1962 0.39139 0.60885 0.89877 1.0945 1.5221 1.4569 0.62333 0.34792 1.3771 0.52187 2.2614 0.52187 1.0727 0.000004 1.9497-0.22469 2.6311-0.67408 0.68131-0.46388 1.1669-1.1742 1.4569-2.131l5.7623 0.50012c-0.26096 0.66684-0.63062 1.3772-1.109 2.131-0.46391 0.75381-1.0872 1.4496-1.87 2.0875-0.78282 0.62334-1.7613 1.1452-2.9355 1.5656-1.1597 0.4059-2.5731 0.60884-4.2402 0.60884m0-20.549c-0.62335 0.00002-1.2104 0.10874-1.7613 0.32617-0.53638 0.20297-1.0075 0.53638-1.4134 1.0002-0.39141 0.4494-0.71033 1.0365-0.95676 1.7613-0.24645 0.72483-0.38416 1.5946-0.41315 2.6093h9.1327c-0.11599-1.899-0.57262-3.3196-1.3699-4.2619-0.79732-0.95674-1.87-1.4351-3.2182-1.4351" />
    <path
       id="path3098"
       style="fill:#000000"
       d="m362.74 72.962v-18.004c-0.00001-0.50735-0.007-1.0437-0.0217-1.6091 0-0.56534-0.0145-1.1017-0.0435-1.6091-0.0145-0.52184-0.029-0.98573-0.0435-1.3916-0.0145-0.42037-0.0362-0.72479-0.0652-0.91327h5.8275c0.029 0.17398 0.058 0.4784 0.087 0.91327 0.029 0.42042 0.058 0.8843 0.087 1.3916 0.029 0.50739 0.0507 1.0148 0.0652 1.5221 0.029 0.4929 0.0435 0.89154 0.0435 1.1959h0.087c0.30441-0.85526 0.60883-1.6163 0.91327-2.2832 0.30441-0.68131 0.65957-1.2539 1.0655-1.7178 0.42038-0.47836 0.9205-0.84076 1.5004-1.0872 0.57984-0.26091 1.2974-0.39138 2.1527-0.3914 0.36239 0.000024 0.71755 0.03626 1.0655 0.10872 0.36239 0.05801 0.63782 0.13049 0.82629 0.21744v5.11c-0.39142-0.08696-0.79007-0.15944-1.196-0.21744-0.39141-0.07246-0.86254-0.1087-1.4134-0.10872-1.5221 0.000019-2.7108 0.61611-3.5661 1.8483-0.8408 1.2322-1.2612 3.0587-1.2612 5.4796v11.546h-6.1102" />
    <path
       id="path3100"
       style="fill:#000000"
       d="m389.68 73.396c-1.6961 0-3.2254-0.24644-4.5881-0.73931-1.3482-0.50737-2.5006-1.2684-3.4574-2.2832-0.95676-1.0292-1.6888-2.3122-2.1962-3.8488-0.50737-1.5511-0.76106-3.3631-0.76106-5.4361 0-2.2469 0.29717-4.1387 0.89153-5.6753 0.60884-1.5366 1.4206-2.776 2.4354-3.7183 1.0292-0.95674 2.2107-1.6453 3.5444-2.0657 1.3336-0.42037 2.7398-0.63057 4.2184-0.63059 1.8555 0.000024 3.4356 0.32619 4.7403 0.9785 1.3191 0.63786 2.3991 1.5366 3.2399 2.6963 0.84076 1.1597 1.4568 2.5514 1.8483 4.1749 0.39138 1.6091 0.58708 3.3922 0.5871 5.3491v0.17396h-15.091c-0.00001 0.98576 0.087 1.9063 0.26093 2.7616 0.17395 0.84079 0.45662 1.5729 0.84803 2.1962 0.3914 0.60885 0.89877 1.0945 1.5221 1.4569 0.62333 0.34792 1.3771 0.52187 2.2614 0.52187 1.0727 0.000004 1.9498-0.22469 2.6311-0.67408 0.68131-0.46388 1.1669-1.1742 1.4569-2.131l5.7623 0.50012c-0.26096 0.66684-0.63062 1.3772-1.109 2.131-0.46391 0.75381-1.0872 1.4496-1.87 2.0875-0.78282 0.62334-1.7613 1.1452-2.9355 1.5656-1.1597 0.4059-2.5731 0.60884-4.2402 0.60884m0-20.549c-0.62335 0.00002-1.2104 0.10874-1.7613 0.32617-0.53638 0.20297-1.0075 0.53638-1.4134 1.0002-0.39141 0.4494-0.71033 1.0365-0.95676 1.7613-0.24645 0.72483-0.38416 1.5946-0.41315 2.6093h9.1327c-0.11599-1.899-0.57262-3.3196-1.3699-4.2619-0.79732-0.95674-1.87-1.4351-3.2182-1.4351" />
    <path
       id="path3102"
       style="fill:#000000"
       d="m423.21 73.353c-1.7976 0-3.1819-0.48563-4.1532-1.4569-0.97126-0.98575-1.4569-2.4716-1.4569-4.4576v-13.873h-2.979v-4.1315h3.2834l1.9135-5.5231h3.827v5.5231h4.4576v4.1315h-4.4576v12.22c-0.00001 1.1452 0.21744 1.9932 0.65234 2.5441 0.43488 0.53637 1.109 0.80455 2.0222 0.80455 0.37689 0.000004 0.71755-0.02899 1.022-0.08698 0.30441-0.05798 0.64507-0.13046 1.022-0.21744v3.7835c-0.75382 0.24644-1.5511 0.42764-2.3919 0.54361-0.84079 0.13047-1.7613 0.1957-2.7616 0.1957" />
    <path
       id="path3104"
       style="fill:#000000"
       d="m454.41 61.176c-0.00002 1.7976-0.25371 3.4429-0.76105 4.936-0.4929 1.4931-1.2395 2.7833-2.2397 3.8705-1.0003 1.0727-2.247 1.9135-3.74 2.5224-1.4931 0.59435-3.2327 0.89152-5.2187 0.89152-1.9135 0-3.6024-0.29717-5.0665-0.89152s-2.6963-1.4279-3.6966-2.5006c-0.98576-1.0727-1.7323-2.3556-2.2397-3.8488-0.50738-1.5076-0.76106-3.1674-0.76106-4.9795 0-1.754 0.23919-3.3704 0.71757-4.849 0.49287-1.4931 1.2322-2.7833 2.2179-3.8705 0.98574-1.0872 2.2252-1.9352 3.7183-2.5441 1.4931-0.60882 3.2399-0.91324 5.2404-0.91327 2.1164 0.000024 3.9212 0.30445 5.4144 0.91327 1.4931 0.60887 2.7108 1.4569 3.6531 2.5441 0.95674 1.0727 1.6526 2.3557 2.0875 3.8488 0.44937 1.4786 0.67406 3.1022 0.67408 4.8708m-6.3929 0c-0.00001-2.7978-0.45665-4.8273-1.3699-6.0885-0.91328-1.2612-2.2397-1.8918-3.9792-1.8918-1.7976 0.00002-3.1747 0.63786-4.1314 1.9135-0.95677 1.2757-1.4352 3.2979-1.4351 6.0667-0.00001 1.4062 0.12321 2.6166 0.36966 3.6313 0.26092 1.0148 0.62333 1.8483 1.0872 2.5006 0.46388 0.65234 1.022 1.138 1.6743 1.4569 0.65232 0.30443 1.3699 0.45664 2.1527 0.45663 0.89876 0.000004 1.6961-0.15221 2.3919-0.45663 0.7103-0.31892 1.3046-0.80454 1.783-1.4569 0.47836-0.65233 0.84077-1.4859 1.0872-2.5006 0.24642-1.0147 0.36964-2.2252 0.36965-3.6313" />
    <path
       id="path3106"
       style="fill:#000000"
       d="m219.18 99.72c-0.00003 2.5514-0.38418 4.7983-1.1524 6.7408-0.76834 1.928-1.8193 3.5444-3.153 4.849-1.3337 1.3047-2.9138 2.2904-4.7403 2.9572-1.8121 0.66684-3.7691 1.0002-5.871 1.0002h-12.394v-30.638h11.09c2.3774 0.000031 4.5591 0.2972 6.5451 0.89152 1.986 0.59438 3.6965 1.5076 5.1317 2.7398 1.4351 1.2322 2.5513 2.7978 3.3486 4.6968 0.79727 1.899 1.1959 4.1532 1.1959 6.7625m-6.4581 0c-0.00002-1.783-0.24646-3.3124-0.73931-4.5881-0.4784-1.2757-1.1525-2.3194-2.0222-3.1312-0.8698-0.82627-1.9135-1.4351-3.1312-1.8265-1.2032-0.39138-2.5369-0.58708-4.001-0.5871h-4.5446v20.722h5.4361c1.2902 0 2.4788-0.22469 3.5661-0.67408 1.1017-0.44938 2.0512-1.1162 2.8485-2.0005 0.81177-0.89877 1.4424-2.0077 1.8918-3.3269 0.46386-1.3192 0.6958-2.8485 0.69582-4.5881" />
    <path
       id="path3108"
       style="fill:#000000"
       d="m253.84 99.807c-0.00003 2.3919-0.35519 4.5663-1.0655 6.5233-0.71036 1.957-1.7324 3.6313-3.066 5.023-1.3337 1.3916-2.9645 2.4644-4.8925 3.2182-1.9135 0.75381-4.0807 1.1307-6.5016 1.1307-2.5659 0-4.8128-0.3914-6.7408-1.1742-1.9135-0.7973-3.5154-1.899-4.8055-3.3052-1.2902-1.4206-2.2614-3.1022-2.9138-5.0447-0.63784-1.9425-0.95676-4.0662-0.95676-6.3711 0-2.3919 0.33341-4.5518 1.0002-6.4799 0.68132-1.928 1.6743-3.5661 2.979-4.9143 1.3192-1.3626 2.9355-2.4064 4.849-3.1312 1.928-0.73928 4.1387-1.1089 6.6321-1.109 2.4934 0.000031 4.6968 0.36969 6.6103 1.109 1.928 0.73934 3.5443 1.7903 4.849 3.153 1.3191 1.3627 2.3194 3.008 3.0007 4.936 0.6813 1.9135 1.022 4.059 1.022 6.4364m-6.5451 0c-0.00002-1.6091-0.19572-3.0587-0.5871-4.3489-0.37693-1.3046-0.94228-2.4209-1.6961-3.3487-0.75383-0.92774-1.6888-1.6381-2.805-2.131-1.1017-0.50735-2.3847-0.76103-3.8488-0.76106-1.4931 0.000026-2.805 0.25371-3.9358 0.76106-1.1162 0.4929-2.0512 1.2032-2.805 2.131-0.75382 0.92779-1.3192 2.044-1.6961 3.3487-0.37691 1.2902-0.56536 2.7398-0.56536 4.3489 0 1.5946 0.18845 3.0587 0.56536 4.3924 0.39139 1.3192 0.964 2.4571 1.7178 3.4139 0.7538 0.95677 1.6888 1.7033 2.805 2.2397 1.1162 0.53637 2.4064 0.80455 3.8705 0.80455 1.5656 0 2.9137-0.26818 4.0445-0.80455 1.1307-0.55085 2.0584-1.3047 2.7833-2.2614 0.73929-0.97125 1.2829-2.1165 1.6308-3.4356 0.34788-1.3336 0.52184-2.7833 0.52186-4.3489" />
    <path
       id="path3110"
       style="fill:#000000"
       d="m289.76 115.27h-7.6106l-4.1532-17.722c-0.13049-0.53635-0.27546-1.1742-0.43489-1.9135-0.14499-0.73929-0.2827-1.4569-0.41315-2.1527-0.15948-0.79728-0.30444-1.6236-0.43489-2.4789-0.15948 0.85531-0.31894 1.6888-0.47838 2.5006-0.0725 0.34793-0.14498 0.71034-0.21744 1.0872-0.0725 0.36243-0.15223 0.72484-0.23919 1.0872-0.0725 0.34793-0.14499 0.68135-0.21745 1.0002-0.058 0.31894-0.12324 0.60886-0.1957 0.86978l-4.1314 17.722h-7.6106l-7.8932-30.638h6.5016l3.827 17.048c0.21744 0.92777 0.42039 1.841 0.60885 2.7398 0.18844 0.89878 0.36239 1.7033 0.52187 2.4136 0.17394 0.8263 0.3334 1.6164 0.47837 2.3702 0.21744-1.0727 0.42763-2.1165 0.63059-3.1312 0.087-0.43488 0.1812-0.88426 0.28268-1.3482 0.10146-0.46388 0.19569-0.92051 0.28268-1.3699 0.10146-0.44937 0.19569-0.87701 0.28268-1.2829 0.10146-0.42038 0.18844-0.79729 0.26093-1.1307l3.7835-16.308h7.1757l3.8705 16.308c0.087 0.34793 0.17393 0.73933 0.26094 1.1742 0.087 0.4204 0.17392 0.86254 0.26093 1.3264 0.087 0.4494 0.17393 0.90603 0.26093 1.3699 0.087 0.4494 0.16668 0.89154 0.23919 1.3264 0.17393 1.0148 0.34789 2.0367 0.52187 3.066 0.17393-0.81179 0.35513-1.6526 0.54361-2.5224 0.15943-0.7393 0.34064-1.5511 0.54362-2.4354 0.20291-0.88427 0.40586-1.7396 0.60884-2.5658l3.6966-17.048h6.5016l-7.915 30.638" />
    <path
       id="path3112"
       style="fill:#000000"
       d="m319.33 115.27-13.35-23.595c0.0725 0.63786 0.1377 1.2757 0.1957 1.9135 0.058 0.55088 0.10146 1.1452 0.13046 1.783 0.0435 0.63786 0.0652 1.2467 0.0652 1.8265v18.07h-5.6971v-30.638h7.3279l13.547 23.788c-0.0725-0.60884-0.13774-1.2467-0.1957-1.9135-0.058-0.56534-0.10875-1.2032-0.15221-1.9135-0.029-0.71031-0.0435-1.4279-0.0435-2.1527v-17.809h5.697v30.638h-7.5236" />
    <path
       id="path3114"
       style="fill:#000000"
       d="m332.86 115.27v-30.638h6.4146v25.68h16.439v4.9577h-22.853" />
    <path
       id="path3116"
       style="fill:#000000"
       d="m389.87 99.807c-0.00003 2.3919-0.35519 4.5663-1.0655 6.5233-0.71035 1.957-1.7323 3.6313-3.066 5.023-1.3337 1.3916-2.9645 2.4644-4.8925 3.2182-1.9135 0.75381-4.0807 1.1307-6.5016 1.1307-2.5659 0-4.8128-0.3914-6.7408-1.1742-1.9135-0.7973-3.5154-1.899-4.8055-3.3052-1.2902-1.4206-2.2614-3.1022-2.9138-5.0447-0.63784-1.9425-0.95676-4.0662-0.95676-6.3711 0-2.3919 0.33341-4.5518 1.0002-6.4799 0.68132-1.928 1.6743-3.5661 2.979-4.9143 1.3192-1.3626 2.9355-2.4064 4.849-3.1312 1.928-0.73928 4.1387-1.1089 6.6321-1.109 2.4934 0.000031 4.6968 0.36969 6.6103 1.109 1.928 0.73934 3.5443 1.7903 4.849 3.153 1.3191 1.3627 2.3194 3.008 3.0007 4.936 0.6813 1.9135 1.022 4.059 1.022 6.4364m-6.5451 0c-0.00002-1.6091-0.19572-3.0587-0.5871-4.3489-0.37693-1.3046-0.94228-2.4209-1.6961-3.3487-0.75383-0.92774-1.6888-1.6381-2.805-2.131-1.1017-0.50735-2.3847-0.76103-3.8488-0.76106-1.4931 0.000026-2.805 0.25371-3.9358 0.76106-1.1162 0.4929-2.0512 1.2032-2.805 2.131-0.75382 0.92779-1.3192 2.044-1.6961 3.3487-0.37691 1.2902-0.56537 2.7398-0.56536 4.3489-0.00001 1.5946 0.18845 3.0587 0.56536 4.3924 0.39139 1.3192 0.96399 2.4571 1.7178 3.4139 0.7538 0.95677 1.6888 1.7033 2.805 2.2397 1.1162 0.53637 2.4064 0.80455 3.8705 0.80455 1.5656 0 2.9137-0.26818 4.0445-0.80455 1.1307-0.55085 2.0585-1.3047 2.7833-2.2614 0.73929-0.97125 1.2829-2.1165 1.6308-3.4356 0.34788-1.3336 0.52184-2.7833 0.52186-4.3489" />
    <path
       id="path3118"
       style="fill:#000000"
       d="m416.36 115.27-2.7181-7.828h-11.677l-2.7181 7.828h-6.4146l11.177-30.638h7.5671l11.133 30.638h-6.3494m-7.1757-21.462c-0.17397-0.50735-0.34793-1.0147-0.52186-1.5221-0.15948-0.52184-0.30444-0.99297-0.43489-1.4134-0.11599-0.43486-0.21747-0.79002-0.30443-1.0655-0.0725-0.2754-0.11598-0.42762-0.13046-0.45663-0.0145 0.04351-0.058 0.20297-0.13047 0.47838-0.0725 0.27546-0.17397 0.62337-0.30442 1.0437-0.11599 0.42042-0.26095 0.89155-0.43489 1.4134-0.15948 0.50739-0.32619 1.0148-0.50013 1.5221l-3.0225 8.8065h8.8065l-3.0225-8.8065" />
    <path
       id="path3120"
       style="fill:#000000"
       d="m454.19 99.72c-0.00003 2.5514-0.38418 4.7983-1.1525 6.7408-0.76833 1.928-1.8193 3.5444-3.153 4.849-1.3337 1.3047-2.9138 2.2904-4.7403 2.9572-1.8121 0.66684-3.7691 1.0002-5.871 1.0002h-12.394v-30.638h11.09c2.3774 0.000031 4.5591 0.2972 6.5451 0.89152 1.986 0.59438 3.6965 1.5076 5.1317 2.7398 1.4351 1.2322 2.5513 2.7978 3.3486 4.6968 0.79727 1.899 1.1959 4.1532 1.196 6.7625m-6.4581 0c-0.00003-1.783-0.24646-3.3124-0.73932-4.5881-0.4784-1.2757-1.1525-2.3194-2.0222-3.1312-0.8698-0.82627-1.9135-1.4351-3.1312-1.8265-1.2032-0.39138-2.5369-0.58708-4.001-0.5871h-4.5446v20.722h5.4361c1.2902 0 2.4788-0.22469 3.5661-0.67408 1.1017-0.44938 2.0512-1.1162 2.8485-2.0005 0.81177-0.89877 1.4424-2.0077 1.8918-3.3269 0.46386-1.3192 0.6958-2.8485 0.69583-4.5881" />
  </g>
  <g
     id="text6735"
     style="fill:#ffffff">
    <path
       id="path3045"
       style="fill:#ffffff"
       d="m206.09 66.352c1.2032 0.000004 2.2397-0.1667 3.1095-0.50012 0.88425-0.34791 1.6453-0.79729 2.2832-1.3482 0.65231-0.55085 1.1887-1.1742 1.6091-1.87 0.43486-0.69582 0.79002-1.3989 1.0655-2.1092l5.5883 2.1092c-0.44942 1.1017-1.0365 2.1817-1.7613 3.2399-0.72485 1.0582-1.6309 1.9932-2.7181 2.805s-2.3847 1.4714-3.8923 1.9787c-1.4931 0.49288-3.2544 0.73931-5.2839 0.73931-2.6528 0-4.9505-0.3914-6.893-1.1742-1.9425-0.7973-3.5516-1.899-4.8273-3.3052-1.2612-1.4206-2.2034-3.1022-2.8268-5.0447-0.60884-1.9425-0.91327-4.0662-0.91327-6.3711 0-2.3919 0.30443-4.5518 0.91327-6.4799 0.62334-1.928 1.5584-3.5661 2.805-4.9143 1.2467-1.3626 2.8195-2.4064 4.7186-3.1312 1.9135-0.73928 4.1604-1.1089 6.7408-1.109 2.0005 0.000031 3.7473 0.21023 5.2404 0.63059 1.5076 0.42042 2.805 1.0148 3.8923 1.783 1.1017 0.75384 2.0077 1.6526 2.7181 2.6963 0.72479 1.0293 1.2901 2.1672 1.6961 3.4139l-5.6536 1.5439c-0.20297-0.65231-0.51464-1.2757-0.93501-1.87-0.42042-0.60882-0.95678-1.1452-1.6091-1.6091-0.63786-0.46386-1.3917-0.83351-2.2614-1.109-0.8698-0.2899-1.8556-0.43486-2.9572-0.43489-1.5511 0.000026-2.8848 0.25371-4.001 0.76106-1.1162 0.4929-2.0368 1.2032-2.7616 2.131-0.71033 0.92779-1.2394 2.044-1.5874 3.3487-0.33342 1.2902-0.50013 2.7398-0.50012 4.3489-0.00001 1.5946 0.1667 3.0587 0.50012 4.3924 0.3479 1.3192 0.88427 2.4571 1.6091 3.4139 0.72481 0.95676 1.6526 1.7033 2.7833 2.2397 1.1452 0.53637 2.5151 0.80455 4.1097 0.80455" />
    <path
       id="path3047"
       style="fill:#ffffff"
       d="m224.09 70.962v-32.269h6.1102v32.269h-6.1102" />
    <path
       id="path3049"
       style="fill:#ffffff"
       d="m236.44 43.194v-4.5011h6.1102v4.5011h-6.1102m0 27.768v-23.528h6.1102v23.528h-6.1102" />
    <path
       id="path3051"
       style="fill:#ffffff"
       d="m258.6 71.396c-1.87 0-3.5081-0.28993-4.9143-0.86978-1.3916-0.57985-2.5514-1.3989-3.4791-2.4571-0.92777-1.0582-1.6236-2.3267-2.0875-3.8053-0.46389-1.4931-0.69583-3.1384-0.69583-4.936 0-1.957 0.25369-3.6965 0.76106-5.2187 0.50737-1.5366 1.2394-2.8268 2.1962-3.8705 0.95675-1.0582 2.131-1.8628 3.5226-2.4136 1.4061-0.55084 3.0007-0.82627 4.7838-0.82629 1.5221 0.000024 2.8702 0.20297 4.0445 0.60885 1.1887 0.40592 2.2107 0.96403 3.066 1.6743 0.85526 0.69584 1.5438 1.5221 2.0657 2.4789 0.53634 0.95678 0.906 1.986 1.109 3.0877l-6.1537 0.30442c-0.17397-1.2032-0.60886-2.1599-1.3047-2.8703-0.69584-0.7248-1.6816-1.0872-2.9572-1.0872-1.6381 0.00002-2.834 0.6741-3.5878 2.0222-0.75382 1.3482-1.1307 3.3052-1.1307 5.871-0.00001 5.4216 1.6018 8.1324 4.8055 8.1324 1.1597 0.000004 2.1309-0.3624 2.9138-1.0872 0.78278-0.73931 1.2684-1.8338 1.4569-3.2834l6.1319 0.28268c-0.14498 1.0872-0.4784 2.131-1.0002 3.1312-0.5074 0.98575-1.2032 1.8628-2.0875 2.6311-0.8698 0.75381-1.928 1.3627-3.1747 1.8265-1.2467 0.44939-2.6746 0.67408-4.2837 0.67408" />
    <path
       id="path3053"
       style="fill:#ffffff"
       d="m288.61 70.962-6.2842-10.655-2.6311 1.8265v8.8283h-6.1102v-32.269h6.1102v18.483l8.3934-9.7415h6.5668l-8.2629 9.1762 8.8935 14.351h-6.6756" />
    <path
       id="path3055"
       style="fill:#ffffff"
       d="m316.75 52.131c0.82628-1.7975 1.8628-3.1022 3.1095-3.914 1.2467-0.81177 2.7325-1.2177 4.4576-1.2177 1.4206 0.000024 2.6166 0.23196 3.5878 0.69582 0.98573 0.4639 1.783 1.1017 2.3919 1.9135 0.62332 0.81181 1.0727 1.7686 1.3482 2.8703 0.2754 1.1017 0.41312 2.2904 0.41314 3.5661v14.917h-6.0884v-13.177c-0.00002-0.91325-0.0725-1.7468-0.21745-2.5006-0.14498-0.76829-0.38417-1.4206-0.71756-1.957-0.33344-0.55084-0.76833-0.97848-1.3047-1.2829-0.53638-0.3044-1.1887-0.45662-1.957-0.45663-0.73932 0.000019-1.4134 0.16673-2.0222 0.50012-0.59437 0.31894-1.109 0.78282-1.5439 1.3916-0.4349 0.59437-0.77557 1.3119-1.022 2.1527-0.23195 0.8263-0.34793 1.7396-0.34792 2.7398v12.59h-6.1102v-32.269h6.1102v8.8065c-0.00001 0.46391-0.007 0.93504-0.0217 1.4134-0.0145 0.4639-0.0362 0.90604-0.0652 1.3264-0.0145 0.40592-0.029 0.77557-0.0435 1.109-0.0145 0.33344-0.029 0.59437-0.0435 0.7828h0.087" />
    <path
       id="path3057"
       style="fill:#ffffff"
       d="m347.58 71.396c-1.6961 0-3.2254-0.24644-4.5881-0.73931-1.3482-0.50737-2.5006-1.2684-3.4574-2.2832-0.95676-1.0292-1.6888-2.3122-2.1962-3.8488-0.50737-1.5511-0.76106-3.3631-0.76106-5.4361 0-2.2469 0.29717-4.1387 0.89153-5.6753 0.60884-1.5366 1.4206-2.776 2.4354-3.7183 1.0292-0.95674 2.2107-1.6453 3.5444-2.0657 1.3336-0.42037 2.7398-0.63057 4.2184-0.63059 1.8555 0.000024 3.4356 0.32619 4.7403 0.9785 1.3191 0.63786 2.3991 1.5366 3.2399 2.6963 0.84076 1.1597 1.4568 2.5514 1.8483 4.1749 0.39137 1.6091 0.58707 3.3922 0.5871 5.3491v0.17396h-15.091c0 0.98576 0.087 1.9063 0.26094 2.7616 0.17395 0.84079 0.45662 1.5729 0.84803 2.1962 0.39139 0.60885 0.89877 1.0945 1.5221 1.4569 0.62333 0.34792 1.3771 0.52187 2.2614 0.52187 1.0727 0.000004 1.9497-0.22469 2.6311-0.67408 0.68131-0.46388 1.1669-1.1742 1.4569-2.131l5.7623 0.50012c-0.26096 0.66684-0.63062 1.3772-1.109 2.131-0.46391 0.75381-1.0872 1.4496-1.87 2.0875-0.78282 0.62334-1.7613 1.1452-2.9355 1.5656-1.1597 0.4059-2.5731 0.60884-4.2402 0.60884m0-20.549c-0.62335 0.00002-1.2104 0.10874-1.7613 0.32617-0.53638 0.20297-1.0075 0.53638-1.4134 1.0002-0.39141 0.4494-0.71033 1.0365-0.95676 1.7613-0.24645 0.72483-0.38416 1.5946-0.41315 2.6093h9.1327c-0.11599-1.899-0.57262-3.3196-1.3699-4.2619-0.79732-0.95674-1.87-1.4351-3.2182-1.4351" />
    <path
       id="path3059"
       style="fill:#ffffff"
       d="m362.74 70.962v-18.004c-0.00001-0.50735-0.007-1.0437-0.0217-1.6091 0-0.56534-0.0145-1.1017-0.0435-1.6091-0.0145-0.52184-0.029-0.98573-0.0435-1.3916-0.0145-0.42037-0.0362-0.72479-0.0652-0.91327h5.8275c0.029 0.17398 0.058 0.4784 0.087 0.91327 0.029 0.42042 0.058 0.8843 0.087 1.3916 0.029 0.50739 0.0507 1.0148 0.0652 1.5221 0.029 0.4929 0.0435 0.89154 0.0435 1.1959h0.087c0.30441-0.85526 0.60883-1.6163 0.91327-2.2832 0.30441-0.68131 0.65957-1.2539 1.0655-1.7178 0.42038-0.47836 0.9205-0.84076 1.5004-1.0872 0.57984-0.26091 1.2974-0.39138 2.1527-0.3914 0.36239 0.000024 0.71755 0.03626 1.0655 0.10872 0.36239 0.05801 0.63782 0.13049 0.82629 0.21744v5.11c-0.39142-0.08696-0.79007-0.15944-1.196-0.21744-0.39141-0.07246-0.86254-0.1087-1.4134-0.10872-1.5221 0.000019-2.7108 0.61611-3.5661 1.8483-0.8408 1.2322-1.2612 3.0587-1.2612 5.4796v11.546h-6.1102" />
    <path
       id="path3061"
       style="fill:#ffffff"
       d="m389.68 71.396c-1.6961 0-3.2254-0.24644-4.5881-0.73931-1.3482-0.50737-2.5006-1.2684-3.4574-2.2832-0.95676-1.0292-1.6888-2.3122-2.1962-3.8488-0.50737-1.5511-0.76106-3.3631-0.76106-5.4361 0-2.2469 0.29717-4.1387 0.89153-5.6753 0.60884-1.5366 1.4206-2.776 2.4354-3.7183 1.0292-0.95674 2.2107-1.6453 3.5444-2.0657 1.3336-0.42037 2.7398-0.63057 4.2184-0.63059 1.8555 0.000024 3.4356 0.32619 4.7403 0.9785 1.3191 0.63786 2.3991 1.5366 3.2399 2.6963 0.84076 1.1597 1.4568 2.5514 1.8483 4.1749 0.39138 1.6091 0.58708 3.3922 0.5871 5.3491v0.17396h-15.091c-0.00001 0.98576 0.087 1.9063 0.26093 2.7616 0.17395 0.84079 0.45662 1.5729 0.84803 2.1962 0.3914 0.60885 0.89877 1.0945 1.5221 1.4569 0.62333 0.34792 1.3771 0.52187 2.2614 0.52187 1.0727 0.000004 1.9498-0.22469 2.6311-0.67408 0.68131-0.46388 1.1669-1.1742 1.4569-2.131l5.7623 0.50012c-0.26096 0.66684-0.63062 1.3772-1.109 2.131-0.46391 0.75381-1.0872 1.4496-1.87 2.0875-0.78282 0.62334-1.7613 1.1452-2.9355 1.5656-1.1597 0.4059-2.5731 0.60884-4.2402 0.60884m0-20.549c-0.62335 0.00002-1.2104 0.10874-1.7613 0.32617-0.53638 0.20297-1.0075 0.53638-1.4134 1.0002-0.39141 0.4494-0.71033 1.0365-0.95676 1.7613-0.24645 0.72483-0.38416 1.5946-0.41315 2.6093h9.1327c-0.11599-1.899-0.57262-3.3196-1.3699-4.2619-0.79732-0.95674-1.87-1.4351-3.2182-1.4351" />
    <path
       id="path3063"
       style="fill:#ffffff"
       d="m423.21 71.353c-1.7976 0-3.1819-0.48563-4.1532-1.4569-0.97126-0.98575-1.4569-2.4716-1.4569-4.4576v-13.873h-2.979v-4.1315h3.2834l1.9135-5.5231h3.827v5.5231h4.4576v4.1315h-4.4576v12.22c-0.00001 1.1452 0.21744 1.9932 0.65234 2.5441 0.43488 0.53637 1.109 0.80455 2.0222 0.80455 0.37689 0.000004 0.71755-0.02899 1.022-0.08698 0.30441-0.05798 0.64507-0.13046 1.022-0.21744v3.7835c-0.75382 0.24644-1.5511 0.42764-2.3919 0.54361-0.84079 0.13047-1.7613 0.1957-2.7616 0.1957" />
    <path
       id="path3065"
       style="fill:#ffffff"
       d="m454.41 59.176c-0.00002 1.7976-0.25371 3.4429-0.76105 4.936-0.4929 1.4931-1.2395 2.7833-2.2397 3.8705-1.0003 1.0727-2.247 1.9135-3.74 2.5224-1.4931 0.59435-3.2327 0.89152-5.2187 0.89152-1.9135 0-3.6024-0.29717-5.0665-0.89152s-2.6963-1.4279-3.6966-2.5006c-0.98576-1.0727-1.7323-2.3556-2.2397-3.8488-0.50738-1.5076-0.76106-3.1674-0.76106-4.9795 0-1.754 0.23919-3.3704 0.71757-4.849 0.49287-1.4931 1.2322-2.7833 2.2179-3.8705 0.98574-1.0872 2.2252-1.9352 3.7183-2.5441 1.4931-0.60882 3.2399-0.91324 5.2404-0.91327 2.1164 0.000024 3.9212 0.30445 5.4144 0.91327 1.4931 0.60887 2.7108 1.4569 3.6531 2.5441 0.95674 1.0727 1.6526 2.3557 2.0875 3.8488 0.44937 1.4786 0.67406 3.1022 0.67408 4.8708m-6.3929 0c-0.00001-2.7978-0.45665-4.8273-1.3699-6.0885-0.91328-1.2612-2.2397-1.8918-3.9792-1.8918-1.7976 0.00002-3.1747 0.63786-4.1314 1.9135-0.95677 1.2757-1.4352 3.2979-1.4351 6.0667-0.00001 1.4062 0.12321 2.6166 0.36966 3.6313 0.26092 1.0148 0.62333 1.8483 1.0872 2.5006 0.46388 0.65234 1.022 1.138 1.6743 1.4569 0.65232 0.30443 1.3699 0.45664 2.1527 0.45663 0.89876 0.000004 1.6961-0.15221 2.3919-0.45663 0.7103-0.31892 1.3046-0.80454 1.783-1.4569 0.47836-0.65233 0.84077-1.4859 1.0872-2.5006 0.24642-1.0147 0.36964-2.2252 0.36965-3.6313" />
    <path
       id="path3067"
       style="fill:#ffffff"
       d="m219.18 97.72c-0.00003 2.5514-0.38418 4.7983-1.1524 6.7408-0.76834 1.928-1.8193 3.5444-3.153 4.849-1.3337 1.3047-2.9138 2.2904-4.7403 2.9572-1.8121 0.66684-3.7691 1.0002-5.871 1.0002h-12.394v-30.638h11.09c2.3774 0.000031 4.5591 0.2972 6.5451 0.89152 1.986 0.59438 3.6965 1.5076 5.1317 2.7398 1.4351 1.2322 2.5513 2.7978 3.3486 4.6968 0.79727 1.899 1.1959 4.1532 1.1959 6.7625m-6.4581 0c-0.00002-1.783-0.24646-3.3124-0.73931-4.5881-0.4784-1.2757-1.1525-2.3194-2.0222-3.1312-0.8698-0.82627-1.9135-1.4351-3.1312-1.8265-1.2032-0.39138-2.5369-0.58708-4.001-0.5871h-4.5446v20.722h5.4361c1.2902 0 2.4788-0.22469 3.5661-0.67408 1.1017-0.44938 2.0512-1.1162 2.8485-2.0005 0.81177-0.89877 1.4424-2.0077 1.8918-3.3269 0.46386-1.3192 0.6958-2.8485 0.69582-4.5881" />
    <path
       id="path3069"
       style="fill:#ffffff"
       d="m253.84 97.807c-0.00003 2.3919-0.35519 4.5663-1.0655 6.5233-0.71036 1.957-1.7324 3.6313-3.066 5.023-1.3337 1.3916-2.9645 2.4644-4.8925 3.2182-1.9135 0.75381-4.0807 1.1307-6.5016 1.1307-2.5659 0-4.8128-0.3914-6.7408-1.1742-1.9135-0.7973-3.5154-1.899-4.8055-3.3052-1.2902-1.4206-2.2614-3.1022-2.9138-5.0447-0.63784-1.9425-0.95676-4.0662-0.95676-6.3711 0-2.3919 0.33341-4.5518 1.0002-6.4799 0.68132-1.928 1.6743-3.5661 2.979-4.9143 1.3192-1.3626 2.9355-2.4064 4.849-3.1312 1.928-0.73928 4.1387-1.1089 6.6321-1.109 2.4934 0.000031 4.6968 0.36969 6.6103 1.109 1.928 0.73934 3.5443 1.7903 4.849 3.153 1.3191 1.3627 2.3194 3.008 3.0007 4.936 0.6813 1.9135 1.022 4.059 1.022 6.4364m-6.5451 0c-0.00002-1.6091-0.19572-3.0587-0.5871-4.3489-0.37693-1.3046-0.94228-2.4209-1.6961-3.3487-0.75383-0.92774-1.6888-1.6381-2.805-2.131-1.1017-0.50735-2.3847-0.76103-3.8488-0.76106-1.4931 0.000026-2.805 0.25371-3.9358 0.76106-1.1162 0.4929-2.0512 1.2032-2.805 2.131-0.75382 0.92779-1.3192 2.044-1.6961 3.3487-0.37691 1.2902-0.56536 2.7398-0.56536 4.3489 0 1.5946 0.18845 3.0587 0.56536 4.3924 0.39139 1.3192 0.964 2.4571 1.7178 3.4139 0.7538 0.95677 1.6888 1.7033 2.805 2.2397 1.1162 0.53637 2.4064 0.80455 3.8705 0.80455 1.5656 0 2.9137-0.26818 4.0445-0.80455 1.1307-0.55085 2.0584-1.3047 2.7833-2.2614 0.73929-0.97125 1.2829-2.1165 1.6308-3.4356 0.34788-1.3336 0.52184-2.7833 0.52186-4.3489" />
    <path
       id="path3071"
       style="fill:#ffffff"
       d="m289.76 113.27h-7.6106l-4.1532-17.722c-0.13049-0.53635-0.27546-1.1742-0.43489-1.9135-0.14499-0.73929-0.2827-1.4569-0.41315-2.1527-0.15948-0.79728-0.30444-1.6236-0.43489-2.4789-0.15948 0.85531-0.31894 1.6888-0.47838 2.5006-0.0725 0.34793-0.14498 0.71034-0.21744 1.0872-0.0725 0.36243-0.15223 0.72484-0.23919 1.0872-0.0725 0.34793-0.14499 0.68135-0.21745 1.0002-0.058 0.31894-0.12324 0.60886-0.1957 0.86978l-4.1314 17.722h-7.6106l-7.8932-30.638h6.5016l3.827 17.048c0.21744 0.92777 0.42039 1.841 0.60885 2.7398 0.18844 0.89878 0.36239 1.7033 0.52187 2.4136 0.17394 0.8263 0.3334 1.6164 0.47837 2.3702 0.21744-1.0727 0.42763-2.1165 0.63059-3.1312 0.087-0.43488 0.1812-0.88426 0.28268-1.3482 0.10146-0.46388 0.19569-0.92051 0.28268-1.3699 0.10146-0.44937 0.19569-0.87701 0.28268-1.2829 0.10146-0.42038 0.18844-0.79729 0.26093-1.1307l3.7835-16.308h7.1757l3.8705 16.308c0.087 0.34793 0.17393 0.73933 0.26094 1.1742 0.087 0.4204 0.17392 0.86254 0.26093 1.3264 0.087 0.4494 0.17393 0.90603 0.26093 1.3699 0.087 0.4494 0.16668 0.89154 0.23919 1.3264 0.17393 1.0148 0.34789 2.0367 0.52187 3.066 0.17393-0.81179 0.35513-1.6526 0.54361-2.5224 0.15943-0.7393 0.34064-1.5511 0.54362-2.4354 0.20291-0.88427 0.40586-1.7396 0.60884-2.5659l3.6966-17.048h6.5016l-7.915 30.638" />
    <path
       id="path3073"
       style="fill:#ffffff"
       d="m319.33 113.27-13.35-23.595c0.0725 0.63786 0.1377 1.2757 0.1957 1.9135 0.058 0.55088 0.10146 1.1452 0.13046 1.783 0.0435 0.63786 0.0652 1.2467 0.0652 1.8265v18.07h-5.6971v-30.638h7.3279l13.547 23.788c-0.0725-0.60884-0.13774-1.2467-0.1957-1.9135-0.058-0.56534-0.10875-1.2032-0.15221-1.9135-0.029-0.71031-0.0435-1.4279-0.0435-2.1527v-17.809h5.697v30.638h-7.5236" />
    <path
       id="path3075"
       style="fill:#ffffff"
       d="m332.86 113.27v-30.638h6.4146v25.68h16.439v4.9577h-22.853" />
    <path
       id="path3077"
       style="fill:#ffffff"
       d="m389.87 97.807c-0.00003 2.3919-0.35519 4.5663-1.0655 6.5233-0.71035 1.957-1.7323 3.6313-3.066 5.023-1.3337 1.3916-2.9645 2.4644-4.8925 3.2182-1.9135 0.75381-4.0807 1.1307-6.5016 1.1307-2.5659 0-4.8128-0.3914-6.7408-1.1742-1.9135-0.7973-3.5154-1.899-4.8055-3.3052-1.2902-1.4206-2.2614-3.1022-2.9138-5.0447-0.63784-1.9425-0.95676-4.0662-0.95676-6.3711 0-2.3919 0.33341-4.5518 1.0002-6.4799 0.68132-1.928 1.6743-3.5661 2.979-4.9143 1.3192-1.3626 2.9355-2.4064 4.849-3.1312 1.928-0.73928 4.1387-1.1089 6.6321-1.109 2.4934 0.000031 4.6968 0.36969 6.6103 1.109 1.928 0.73934 3.5443 1.7903 4.849 3.153 1.3191 1.3627 2.3194 3.008 3.0007 4.936 0.6813 1.9135 1.022 4.059 1.022 6.4364m-6.5451 0c-0.00002-1.6091-0.19572-3.0587-0.5871-4.3489-0.37693-1.3046-0.94228-2.4209-1.6961-3.3487-0.75383-0.92774-1.6888-1.6381-2.805-2.131-1.1017-0.50735-2.3847-0.76103-3.8488-0.76106-1.4931 0.000026-2.805 0.25371-3.9358 0.76106-1.1162 0.4929-2.0512 1.2032-2.805 2.131-0.75382 0.92779-1.3192 2.044-1.6961 3.3487-0.37691 1.2902-0.56537 2.7398-0.56536 4.3489-0.00001 1.5946 0.18845 3.0587 0.56536 4.3924 0.39139 1.3192 0.96399 2.4571 1.7178 3.4139 0.7538 0.95677 1.6888 1.7033 2.805 2.2397 1.1162 0.53637 2.4064 0.80455 3.8705 0.80455 1.5656 0 2.9137-0.26818 4.0445-0.80455 1.1307-0.55085 2.0585-1.3047 2.7833-2.2614 0.73929-0.97125 1.2829-2.1165 1.6308-3.4356 0.34788-1.3336 0.52184-2.7833 0.52186-4.3489" />
    <path
       id="path3079"
       style="fill:#ffffff"
       d="m416.36 113.27-2.7181-7.828h-11.677l-2.7181 7.828h-6.4146l11.177-30.638h7.5671l11.133 30.638h-6.3494m-7.1757-21.462c-0.17397-0.50735-0.34793-1.0147-0.52186-1.5221-0.15948-0.52184-0.30444-0.99297-0.43489-1.4134-0.11599-0.43486-0.21747-0.79002-0.30443-1.0655-0.0725-0.2754-0.11598-0.42762-0.13046-0.45663-0.0145 0.04351-0.058 0.20297-0.13047 0.47838-0.0725 0.27546-0.17397 0.62337-0.30442 1.0437-0.11599 0.42042-0.26095 0.89155-0.43489 1.4134-0.15948 0.50739-0.32619 1.0148-0.50013 1.5221l-3.0225 8.8065h8.8065l-3.0225-8.8065" />
    <path
       id="path3081"
       style="fill:#ffffff"
       d="m454.19 97.72c-0.00003 2.5514-0.38418 4.7983-1.1525 6.7408-0.76833 1.928-1.8193 3.5444-3.153 4.849-1.3337 1.3047-2.9138 2.2904-4.7403 2.9572-1.8121 0.66684-3.7691 1.0002-5.871 1.0002h-12.394v-30.638h11.09c2.3774 0.000031 4.5591 0.2972 6.5451 0.89152 1.986 0.59438 3.6965 1.5076 5.1317 2.7398 1.4351 1.2322 2.5513 2.7978 3.3486 4.6968 0.79727 1.899 1.1959 4.1532 1.196 6.7625m-6.4581 0c-0.00003-1.783-0.24646-3.3124-0.73932-4.5881-0.4784-1.2757-1.1525-2.3194-2.0222-3.1312-0.8698-0.82627-1.9135-1.4351-3.1312-1.8265-1.2032-0.39138-2.5369-0.58708-4.001-0.5871h-4.5446v20.722h5.4361c1.2902 0 2.4788-0.22469 3.5661-0.67408 1.1017-0.44938 2.0512-1.1162 2.8485-2.0005 0.81177-0.89877 1.4424-2.0077 1.8918-3.3269 0.46386-1.3192 0.6958-2.8485 0.69583-4.5881" />
  </g>
  <path
     id="path5766"
     d="m18.346 22.332c14.799-17.849 26.324-14.556 40.769-14.692 177.34-1.6701 471.12 0.7071 483.86 0.7071 12.728 0 21.92 7.7782 25.456 14.849"
     style="filter:url(#filter5768);stroke:#99ff55;stroke-width:1px;fill:none"
     inkscape:connector-curvature="0" />
  <path
     id="path5772"
     d="m10.142 17.614c14.799-17.849 26.325-14.556 40.77-14.692 177.34-1.6703 473.13 0.7069 485.86 0.7069 12.728 0 21.92 7.7782 25.456 14.849"
     style="filter:url(#filter5768);stroke:#112b00;stroke-width:1px;fill:none"
     transform="matrix(1 0 0 -1 8.2035 153.51)"
     inkscape:connector-curvature="0" />
  <g
     id="g6155"
     transform="translate(-59.797 -893.59)">
    <path
       id="path3836"
       d="m559.8 931.82v28.794h-8.5632a2.8403 2.0842 0 0 0 -2.4466 3.1993l10.539 13.362 10.539 13.456a2.8403 2.0842 0 0 0 1.9761 1.0351 2.8403 2.0842 0 0 0 2.9171 -1.0351l10.599-13.43 10.539-13.362a2.8403 2.0842 0 0 0 -2.4466 -3.1994h-8.5632v-28.8h-25.13zm-19.935 43.653-8.3355 1.382c-0.0853-0.511-0.01-0.16645 0 0.0871 0.01 0.25292-0.01 0.65387 0 1.123 0.0151 0.93789 0.0373 2.239 0.043 3.7575 0.0124 3.0369 0.0151 6.9547 0 10.841-0.0307 7.7718-0.0864 15.376-0.0864 15.376l-0.043 4.2324h81.847v-36.107h-8.4219v27.684h-64.915c0.0211-2.6268 0.0211-5.4942 0.0431-11.143 0.0151-3.8973 0.0124-7.8486 0-10.927-0.006-1.5392 0.0181-2.8793 0-3.8871-0.01-0.50392-0.0301-0.89726-0.0431-1.2526-0.0151-0.3552 0.0301-0.46977-0.0864-1.1661z"
       style="color:#000000;fill-rule:evenodd;fill:#005900"
       inkscape:connector-curvature="0" />
    <path
       id="path6153"
       d="m559.8 933.82v28.794h-8.5632a2.8403 2.0842 0 0 0 -2.4466 3.1993l10.539 13.362 10.539 13.456a2.8403 2.0842 0 0 0 1.9761 1.0351 2.8403 2.0842 0 0 0 2.9171 -1.0351l10.599-13.43 10.539-13.362a2.8403 2.0842 0 0 0 -2.4466 -3.1994h-8.5632v-28.8h-25.13zm-19.935 43.653-8.3355 1.382c-0.0853-0.511-0.01-0.16645 0 0.0871 0.01 0.25292-0.01 0.65387 0 1.123 0.0151 0.93789 0.0373 2.239 0.043 3.7575 0.0124 3.0369 0.0151 6.9547 0 10.841-0.0307 7.7718-0.0864 15.376-0.0864 15.376l-0.043 4.2324h81.847v-36.107h-8.4219v27.684h-64.915c0.0211-2.6268 0.0211-5.4942 0.0431-11.143 0.0151-3.8973 0.0124-7.8486 0-10.927-0.006-1.5392 0.0181-2.8793 0-3.8871-0.01-0.50392-0.0301-0.89726-0.0431-1.2526-0.0151-0.3552 0.0301-0.46977-0.0864-1.1661z"
       style="color:#000000;fill-rule:evenodd;fill:#338000"
       inkscape:connector-curvature="0" />
  </g>
  <metadata
     id="metadata70">
    <rdf:RDF>
      <cc:Work>
        <dc:format>image/svg+xml</dc:format>
        <dc:type
           rdf:resource="http://purl.org/dc/dcmitype/StillImage" />
        <cc:license
           rdf:resource="http://creativecommons.org/licenses/publicdomain/" />
        <dc:publisher>
          <cc:Agent
             rdf:about="http://openclipart.org/">
            <dc:title>Openclipart</dc:title>
          </cc:Agent>
        </dc:publisher>
        <dc:title></dc:title>
      </cc:Work>
      <cc:License
         rdf:about="http://creativecommons.org/licenses/publicdomain/">
        <cc:permits
           rdf:resource="http://creativecommons.org/ns#Reproduction" />
        <cc:permits
           rdf:resource="http://creativecommons.org/ns#Distribution" />
        <cc:permits
           rdf:resource="http://creativecommons.org/ns#DerivativeWorks" />
      </cc:License>
    </rdf:RDF>
  </metadata>
  <g
     id="g4108"
     transform="matrix(0.28835293,0,0,0.28880853,139.90362,11.45727)">
    <path
       transform="matrix(0.40465394,0,0,0.40514982,-200.31189,257.29356)"
       sodipodi:start="0"
       sodipodi:end="6.2831679"
       sodipodi:cx="145.4084"
       sodipodi:cy="387.31387"
       sodipodi:open="true"
       d="m 548.45171,387.31387 a 403.0433,36.640301 0 0 1 -403.04155,36.6403 403.0433,36.640301 0 0 1 -403.04506,-36.63998 403.0433,36.640301 0 0 1 403.03804,-36.64062 403.0433,36.640301 0 0 1 403.04857,36.63967"
       sodipodi:type="arc"
       style="opacity:0.8;fill:#000000;fill-rule:evenodd;filter:url(#filter3794)"
       sodipodi:ry="36.640301"
       sodipodi:rx="403.0433"
       id="path3764" />
    <path
       d="m -276.58404,262.59968 c -4.59687,91.90419 70.20746,143.15969 135.85042,142.3818 65.638918,-0.78194 133.2930098,-31.73538 134.2075277,-143.54053 17.3341603,4.28892 19.5763483,6.0655 45.0905883,24.30899 20.534569,14.68344 20.478322,-3.01233 16.186158,-16.20599 -4.245225,-13.04907 -16.231074,-26.17106 -42.775968,-45.14584 -38.211067,-27.31156 -36.001252,-38.71045 -40.03201,-56.58323 -8.200312,-37.52781 -13.067085,-66.9429 -37.660737,-98.536487 -19.429055,-19.330913 -46.134599,-31.24961 -75.593399,-31.24961 -29.67611,0 -56.55849,12.122082 -76.01829,31.712292 -26.84758,30.694145 -34.4834,52.551985 -36.41805,91.855565 0.1407,18.55667 -4.33506,35.01913 -41.33135,63.95695 -36.99711,28.93945 -40.34886,35.98825 -42.77597,45.14585 -2.414,9.10047 -4.54305,28.85801 16.61954,14.90465 25.14115,-16.57468 44.65356,-23.00441 44.65356,-23.00441 z"
       style="fill:#000000;fill-rule:evenodd;stroke:#000000;stroke-width:7.97004271"
       sodipodi:nodetypes="czcszsccsccszsc"
       id="path3161"
       inkscape:connector-curvature="0" />
    <path
       sodipodi:start="0"
       sodipodi:end="6.2831679"
       sodipodi:cx="1510.9303"
       sodipodi:cy="175.48776"
       transform="matrix(0.43957557,0,0,0.40936338,-805.6448,43.915611)"
       sodipodi:open="true"
       d="M 1700.8813,175.48776 A 189.95103,185.12994 0 0 1 1510.9311,360.61771 189.95103,185.12994 0 0 1 1320.9793,175.48937 189.95103,185.12994 0 0 1 1510.9278,-9.6421814 189.95103,185.12994 0 0 1 1700.8813,175.48454"
       sodipodi:type="arc"
       style="fill:url(#linearGradient3360);fill-rule:evenodd;filter:url(#filter3766)"
       sodipodi:ry="185.12994"
       sodipodi:rx="189.95103"
       id="path3358" />
    <rect
       x="-224.97043"
       y="39.968246"
       width="166.99663"
       height="151.57465"
       style="fill:none"
       id="rect3326" />
    <path
       d="m -29.919137,296.38918 c 0,34.10389 -12.362987,65.7153 -32.34844,88.07957 -19.985454,22.36508 -136.141773,22.36508 -156.127633,0 -19.98545,-22.36508 -32.35208,-53.25695 -32.35208,-87.35841 0,-68.20697 49.4649,-123.56259 110.41792,-123.56259 60.499812,0 109.709777,55.149 110.413875,122.84548 z"
       style="fill:url(#linearGradient2972);fill-rule:evenodd"
       sodipodi:nodetypes="cssssc"
       id="path3170"
       inkscape:connector-curvature="0" />
    <path
       transform="matrix(0.40465394,0,0,0.40514982,-200.31189,257.29356)"
       d="m -103.21735,-6.3633082 c -12.495,84.3050002 5.216298,155.8199982 25.828998,236.1499982 l -26.750998,8.3021 c -26.242,-28.289 -42.488,-63.105 -56.27,-98.703 l 41.51,32.286 c -10.566,-55.106 -5.2415,-126.049998 15.682,-178.0299982 z"
       style="fill:#ffffff;fill-opacity:0.38570999;fill-rule:evenodd;filter:url(#filter3782)"
       sodipodi:nodetypes="cccccc"
       id="path3760"
       inkscape:connector-curvature="0" />
    <path
       transform="matrix(0.40465394,0,0,0.40514982,-200.31189,257.29356)"
       d="m 398.67265,-1.7833082 c 12.495,84.3050002 -5.2163,155.8199982 -25.829,236.1499982 l 26.751,8.3021 c 0,0 14.759,-16.604 27.674,-36.898 12.914,-20.294 28.596,-61.804 28.596,-61.804 l -41.51,32.286 c 10.566,-55.106 5.2415,-126.049998 -15.682,-178.0299982 z"
       style="fill:#ffffff;fill-opacity:0.38570999;fill-rule:evenodd;filter:url(#filter3778)"
       sodipodi:nodetypes="cccsccc"
       id="path3762"
       inkscape:connector-curvature="0" />
    <path
       transform="matrix(0.40465394,0,0,0.40514982,-200.31189,257.29356)"
       d="m 514.54265,341.99669 c 0,16.9 -4.779,23.005 -13.42,37.655 l -314.52,0 c -8.6405,-14.65 -13.42,-20.754 -13.42,-37.655 0,-67.602 76.464,-122.47 170.68,-122.47 94.213,0 170.68,54.864 170.68,122.46"
       style="opacity:0.5;fill:#000000;fill-rule:evenodd;filter:url(#filter3738)"
       sodipodi:nodetypes="cccssc"
       id="path3740"
       inkscape:connector-curvature="0" />
    <path
       d="m 9.1380614,398.97716 c 0,6.84704 -1.9338007,9.32047 -5.4304559,15.25592 l -127.2717555,0 c -3.49641,-5.93545 -5.43046,-8.40848 -5.43046,-15.25592 0,-27.38893 30.941462,-49.6187 69.066337,-49.6187 38.123662,0 69.0663344,22.22814 69.0663344,49.61465"
       style="fill:url(#radialGradient2965);fill-rule:evenodd"
       sodipodi:nodetypes="cccssc"
       id="path3193"
       inkscape:connector-curvature="0" />
    <path
       transform="matrix(0.40465394,0,0,0.40514982,-200.31189,257.29356)"
       d="m 125.49265,341.85669 c 0,16.9 -4.779,23.005 -13.42,37.655 l -314.52,0 c -8.6405,-14.65 -13.42,-20.754 -13.42,-37.655 0,-67.602 76.464,-122.47 170.679998,-122.47 94.213,0 170.680002,54.864 170.680002,122.46"
       style="opacity:0.5;fill:#000000;fill-rule:evenodd;filter:url(#filter3742)"
       sodipodi:nodetypes="cccssc"
       id="path3622"
       inkscape:connector-curvature="0" />
    <path
       d="m -150.82973,398.97716 c 0,6.84704 -1.93384,9.32047 -5.43046,15.25592 l -127.27176,0 c -3.49641,-5.93545 -5.43045,-8.40848 -5.43045,-15.25592 0,-27.38893 30.94146,-49.6187 69.06633,-49.6187 38.12366,0 69.06634,22.22814 69.06634,49.61465"
       style="fill:url(#radialGradient2961);fill-rule:evenodd"
       sodipodi:nodetypes="cccssc"
       id="path3200"
       inkscape:connector-curvature="0" />
    <path
       sodipodi:start="0"
       sodipodi:end="6.2831679"
       sodipodi:cx="617.09979"
       sodipodi:cy="299.87195"
       transform="matrix(0.56837692,0,0,0.44606995,-452.19171,14.741583)"
       sodipodi:open="true"
       d="m 700.02258,299.87195 a 82.922791,83.887009 0 0 1 -82.92243,83.88701 82.922791,83.887009 0 0 1 -82.92315,-83.88628 82.922791,83.887009 0 0 1 82.92171,-83.88774 82.922791,83.887009 0 0 1 82.92387,83.88555"
       sodipodi:type="arc"
       style="opacity:0.85;fill:#000000;fill-rule:evenodd;filter:url(#filter3758)"
       sodipodi:ry="83.887009"
       sodipodi:rx="82.922791"
       id="path3227" />
    <path
       sodipodi:start="0"
       sodipodi:end="6.2831679"
       sodipodi:cx="430.04144"
       sodipodi:cy="269.01694"
       transform="matrix(0.51937333,0,0,0.5081389,-405.79004,9.1314734)"
       sodipodi:open="true"
       d="m 507.17892,269.01694 a 77.137474,97.386063 0 0 1 -77.13714,97.38606 77.137474,97.386063 0 0 1 -77.13781,-97.38522 77.137474,97.386063 0 0 1 77.13647,-97.38691 77.137474,97.386063 0 0 1 77.13848,97.38437"
       sodipodi:type="arc"
       style="opacity:0.85;fill:#000000;fill-rule:evenodd;stroke:#000000;stroke-width:20.23589706;filter:url(#filter3762)"
       sodipodi:ry="97.386063"
       sodipodi:rx="77.137474"
       id="path3213" />
    <path
       sodipodi:start="0"
       sodipodi:end="6.2831679"
       sodipodi:cx="-182.82506"
       sodipodi:cy="147.00867"
       sodipodi:open="true"
       d="m -144.69093,147.00867 a 38.134125,48.337479 0 0 1 -38.13396,48.33748 38.134125,48.337479 0 0 1 -38.13429,-48.33706 38.134125,48.337479 0 0 1 38.13362,-48.337902 38.134125,48.337479 0 0 1 38.13463,48.336642"
       sodipodi:type="arc"
       style="fill:url(#radialGradient3309);fill-rule:evenodd"
       sodipodi:ry="48.337479"
       sodipodi:rx="38.134125"
       id="path3215" />
    <path
       sodipodi:start="0"
       sodipodi:end="6.2831679"
       sodipodi:cx="-102.62126"
       sodipodi:cy="151.24506"
       sodipodi:open="true"
       d="m -61.359497,151.24506 a 41.261765,35.451519 0 0 1 -41.261583,35.45152 41.261765,35.451519 0 0 1 -41.26195,-35.45122 41.261765,35.451519 0 0 1 41.26123,-35.45182 41.261765,35.451519 0 0 1 41.262303,35.4509"
       sodipodi:type="arc"
       style="fill:url(#radialGradient3319);fill-rule:evenodd"
       sodipodi:ry="35.451519"
       sodipodi:rx="41.261765"
       id="path3229" />
    <path
       d="m -207.01998,114.97524 c 28.83604,-38.9353 64.12146,4.56928 59.94139,34.09458 -9.49278,6.98802 -19.36148,2.62699 -19.36148,2.62699 -2.23656,-25.63869 -18.74438,-32.82686 -40.5787,-36.72157 z"
       style="opacity:0.8;fill:url(#linearGradient2953);fill-rule:evenodd"
       sodipodi:nodetypes="cccc"
       id="path3328"
       inkscape:connector-curvature="0" />
    <path
       d="m -108.69717,118.88089 c 14.977461,-4.6965 52.18013,13.57819 43.698583,32.8147 l -17.167848,0.78129 c 0,0 -10.924847,-25.00179 -26.531945,-33.59624 z"
       style="opacity:0.8;fill:url(#linearGradient2949);fill-rule:evenodd"
       sodipodi:nodetypes="cccc"
       id="path3374"
       inkscape:connector-curvature="0" />
    <path
       d="m -137.26573,167.90402 c 25.90594,14.39659 50.116387,13.90717 72.141701,-6.32844 -14.765013,30.87322 -43.459831,33.82595 -72.141701,6.32844 z"
       style="opacity:0.8;fill:url(#radialGradient2946);fill-rule:evenodd"
       sodipodi:nodetypes="ccc"
       id="path3384"
       inkscape:connector-curvature="0" />
    <path
       d="m -215.84953,133.31638 c -0.22419,34.33199 22.28106,52.38992 53.56,55.40828 -38.34744,12.09049 -58.07189,-20.79066 -53.56,-55.40828 z"
       style="opacity:0.8;fill:url(#radialGradient2943);fill-rule:evenodd"
       sodipodi:nodetypes="ccc"
       id="path3402"
       inkscape:connector-curvature="0" />
    <path
       transform="matrix(0.40465394,0,0,0.40514982,-200.31189,257.29356)"
       d="m 147.52265,-55.993308 9.5069,-0.17903 c 0,0 10.343,-11.44 46.297,-49.028002 23.969,-27.238 31.596,-45.215 31.596,-45.215 0,0 4.9028,-17.977 -18.522,-36.499 -30.744,-15.265 -46.297,-15.253 -69.027,-15.164 -22.73,0.0895 -39.61,2.8133 -69.027002,15.343 -29.417,12.529 -24.514,37.588 -24.514,37.588 0,0 2.179,11.985 38.133,49.573002 35.954002,37.588 55.557002,43.58 55.557002,43.58 z"
       style="fill:#000000;filter:url(#filter3734)"
       sodipodi:nodetypes="ccccccscsc"
       id="path2952"
       inkscape:connector-curvature="0" />
    <path
       d="m -140.61627,232.17698 3.84701,-0.0725 c 0,0 4.18533,-4.63491 18.73426,-19.86369 9.69915,-11.03547 12.78545,-18.31885 12.78545,-18.31885 0,0 1.98393,-7.28337 -7.495,-14.78756 -12.44069,-6.18461 -18.73427,-6.17975 -27.93205,-6.14369 -9.19779,0.0363 -16.02834,1.13981 -27.93205,6.21621 -11.90371,5.07612 -9.91969,15.22877 -9.91969,15.22877 0,0 0.88174,4.85572 15.43067,20.0845 14.54893,15.22877 22.48136,17.65643 22.48136,17.65643 z"
       style="fill:url(#radialGradient2940);fill-rule:evenodd"
       sodipodi:nodetypes="ccccccscsc"
       id="path3202"
       inkscape:connector-curvature="0" />
    <path
       transform="matrix(0.40465394,0,0,0.40514982,-200.31189,257.29356)"
       d="m 86.932648,-190.19331 c 0,0 46.522002,3.1015 77.094002,21.71 30.572,18.609 41.648,44.307 41.648,44.307 24.635,-27.925 38.116,-42.196 1.7723,-68.676 -37.355,-18.836 -83.277,-14.983 -120.510002,2.6584 z"
       style="fill:url(#linearGradient2937);fill-rule:evenodd;filter:url(#filter3799)"
       sodipodi:nodetypes="csccc"
       id="path3406"
       inkscape:connector-curvature="0" />
    <path
       sodipodi:start="0"
       sodipodi:end="6.2831679"
       sodipodi:cx="1304.5875"
       sodipodi:cy="852.36914"
       transform="matrix(0.5395251,0,0,0.59929761,-935.0936,-127.45831)"
       sodipodi:open="true"
       d="m 1382.6892,852.36914 a 78.101692,46.282486 0 0 1 -78.1013,46.28249 78.101692,46.282486 0 0 1 -78.1021,-46.28209 78.101692,46.282486 0 0 1 78.1007,-46.28289 78.101692,46.282486 0 0 1 78.1027,46.28168"
       sodipodi:type="arc"
       style="opacity:0.8;fill:url(#linearGradient4106);fill-rule:evenodd;filter:url(#filter3795)"
       sodipodi:ry="46.282486"
       sodipodi:rx="78.101692"
       id="path3600" />
    <path
       sodipodi:start="0"
       sodipodi:end="6.2831679"
       sodipodi:cx="1304.5875"
       sodipodi:cy="852.36914"
       transform="matrix(0.5395251,0,0,0.59929761,-753.28258,-127.45831)"
       sodipodi:open="true"
       d="m 1382.6892,852.36914 a 78.101692,46.282486 0 0 1 -78.1013,46.28249 78.101692,46.282486 0 0 1 -78.1021,-46.28209 78.101692,46.282486 0 0 1 78.1007,-46.28289 78.101692,46.282486 0 0 1 78.1027,46.28168"
       sodipodi:type="arc"
       style="opacity:0.8;fill:url(#linearGradient3608);fill-rule:evenodd;filter:url(#filter3786)"
       sodipodi:ry="46.282486"
       sodipodi:rx="78.101692"
       id="path3610" />
    <path
       transform="matrix(0.40465394,0,0,0.40514982,-200.31189,257.29356)"
       d="m -330.91535,44.056692 c 0,0 161.99,-104.14 187.06,-123.42 25.07,-19.284 1.9285,-80.994002 1.9285,-80.994002 -40.415,59.128 -97.848,99.587002 -152.35,144.630002 -44.354,44.354 -42.727,63.884 -36.64,59.782 z"
       style="fill:url(#linearGradient2931);fill-rule:evenodd;filter:url(#filter3774)"
       sodipodi:nodetypes="csccc"
       id="path3742"
       inkscape:connector-curvature="0" />
    <path
       transform="matrix(0.40465394,0,0,0.40514982,-200.31189,257.29356)"
       d="m 434.25265,-81.293308 c -25.07,-19.284002 -1.9285,-80.994002 -1.9285,-80.994002 40.415,59.128 97.848,99.587002 152.35,144.630002 134.70998,159.559998 -95.396,-43.1 -150.42,-63.638 z"
       style="fill:url(#linearGradient2928);fill-rule:evenodd;filter:url(#filter3770)"
       sodipodi:nodetypes="cccc"
       id="path3754"
       inkscape:connector-curvature="0" />
    <g
       id="g4147"
       transform="translate(6.9359448,6.9250028)">
      <path
         id="path3217"
         sodipodi:rx="10.924894"
         sodipodi:ry="16.016769"
         style="fill:#000000;fill-rule:evenodd;stroke:#000000;stroke-width:7.97004271"
         sodipodi:type="arc"
         d="m -166.21033,151.30429 a 10.924894,16.016769 0 0 1 -10.92485,16.01677 10.924894,16.016769 0 0 1 -10.92494,-16.01663 10.924894,16.016769 0 0 1 10.92475,-16.01691 10.924894,16.016769 0 0 1 10.92504,16.01649"
         sodipodi:open="true"
         sodipodi:cy="151.30429"
         sodipodi:cx="-177.13522"
         sodipodi:end="6.2831679"
         sodipodi:start="0" />
      <path
         inkscape:connector-curvature="0"
         id="path3828"
         sodipodi:nodetypes="cccc"
         style="fill:url(#linearGradient2922);fill-rule:evenodd"
         d="m -179.33002,135.90528 c 0,0 2.69815,7.8044 2.89801,14.40794 5.8958,-2.00107 8.99383,-4.00215 8.99383,-4.00215 0,0 -1.499,-10.40546 -11.89197,-10.40546 z" />
      <path
         inkscape:connector-curvature="0"
         id="path3830"
         sodipodi:nodetypes="ccc"
         style="fill:url(#linearGradient2919);fill-rule:evenodd"
         d="m -185.46458,141.44773 c -1.14881,10.13442 3.68834,20.18781 13.79061,23.11258 -14.55541,5.77136 -19.13649,-13.00004 -13.79061,-23.11258 z" />
    </g>
    <g
       id="g4142"
       transform="translate(34.679725,6.9250028)">
      <path
         id="path3231"
         sodipodi:rx="10.924894"
         sodipodi:ry="16.016769"
         style="fill:#000000;fill-rule:evenodd"
         sodipodi:type="arc"
         d="m -108.05448,151.63695 a 10.924894,16.016769 0 0 1 -10.92484,16.01677 10.924894,16.016769 0 0 1 -10.92494,-16.01663 10.924894,16.016769 0 0 1 10.92475,-16.01691 10.924894,16.016769 0 0 1 10.92503,16.01649"
         sodipodi:open="true"
         sodipodi:cy="151.63695"
         sodipodi:cx="-118.97937"
         sodipodi:end="6.2831679"
         sodipodi:start="0" />
      <path
         inkscape:connector-curvature="0"
         id="path3836-3"
         sodipodi:nodetypes="cccc"
         style="fill:url(#linearGradient2916);fill-rule:evenodd"
         d="m -121.49603,136.41577 c 0,0 2.69815,7.8044 2.89801,14.40794 5.89581,-2.00108 8.99384,-4.00215 8.99384,-4.00215 0,0 -1.499,-10.40546 -11.89197,-10.40546 z" />
      <path
         inkscape:connector-curvature="0"
         id="path3838"
         sodipodi:nodetypes="cscc"
         style="fill:url(#linearGradient2913);fill-rule:evenodd"
         d="m -126.78485,142.2945 c 0,0 -0.99934,8.70464 2.69815,14.60808 3.69748,5.90303 7.8948,7.8044 11.09237,8.5045 -14.5554,5.77136 -19.13649,-13.00005 -13.7906,-23.11258 z" />
    </g>
  </g>
</svg>
